# xmcd
#
# Track frame offsets: 
#        150
#        6686
#        33955
#        48052
#        69377
#        92776
#        116765
#        138778
#        156992
#
# Disc length: 2370 seconds
#
# Revision: 0
# Processed by: cddbd v1.5.2PL0 Copyright (c) Steve Scherf et al.
# Submitted via: ExactAudioCopyFreeDBPlugin 1.0
#
DISCID=72094009
DTITLE=B.B. King - 1970 - Indianola Mississippi Seeds
DYEAR=1970
DGENRE=
TTITLE0=Nobody Loves Me But My Mother
TTITLE1=You're Still My Woman
TTITLE2=Ask Me No Questions
TTITLE3=Until' I'm Dead And Cold
TTITLE4=King's Special
TTITLE5=Ain't Gonna Worry My Life Anymore
TTITLE6=Chains And Things
TTITLE7=Go Underground
TTITLE8=Hummingbird
EXTD=
EXTT0=
EXTT1=
EXTT2=
EXTT3=
EXTT4=
EXTT5=
EXTT6=
EXTT7=
EXTT8=
PLAYORDER=
